<svg version="1.1" id="Layer_1" xmlns="http://www.w3.org/2000/svg" xmlns:xlink="http://www.w3.org/1999/xlink" x="0px" y="0px"
	 viewBox="0 0 450 450" style="enable-background:new 0 0 450 450;" xml:space="preserve">
<style type="text/css">
	.st0{fill:#EFEFEF;}
	.st1{fill:#97C841;}
	.st2{fill:#749931;}
	.st3{fill:#85B038;}
	.st4{fill:#B5732B;}
	.st5{fill:#945E23;}
	.st6{fill:#BDCBFF;}
	.st7{fill:#909AC2;}
	.st8{fill:url(#SVGID_1_);}
	.st9{fill:#4A4F63;}
	.st10{fill:url(#SVGID_00000114035229544560746610000002060786194253985721_);}
	.st11{fill:url(#SVGID_00000174591189129660043230000010540058045253207191_);}
	.st12{fill:url(#SVGID_00000114038304075291010780000012246234943396582037_);}
	.st13{fill:url(#SVGID_00000112607666299267871690000010077204761913106106_);}
	.st14{fill:url(#SVGID_00000011022036382386597920000017745649131497707146_);}
	.st15{fill:url(#SVGID_00000180344704565337366330000007893131119606710463_);}
	.st16{fill:url(#SVGID_00000029730562686381012360000013917318980802435748_);}
	.st17{fill:url(#SVGID_00000150818895330778997220000006740620883785917827_);}
</style>
<g>
	<g>
		<polygon class="st0" points="426.5,265.7 201.6,395.6 23.5,292.8 37.3,284.8 238.3,168.8 248.4,162.9 		"/>
	</g>
	<g>
		<g>
			<g>
				<g>
					<polygon class="st1" points="426.5,192.7 201.6,322.6 23.5,219.7 37.3,211.8 238.3,95.7 248.4,89.9 					"/>
				</g>
				<polygon class="st2" points="23.5,219.7 23.5,257.9 201.6,360.7 201.6,322.6 				"/>
				<polygon class="st3" points="426.5,192.7 426.5,230.9 201.6,360.7 201.6,322.6 				"/>
				<polygon class="st4" points="426.5,220.1 426.5,230.9 201.6,360.7 201.6,350 				"/>
				<polygon class="st5" points="23.5,247.1 23.5,257.9 201.6,360.7 201.6,350 				"/>
			</g>
		</g>
		<g>
			<g>
				<polygon class="st2" points="402.7,185.3 295.6,247.1 242.1,216.1 194.5,243.6 140.9,212.7 89.9,242.1 38.8,212.6 244.4,93.9 
					295.6,123.4 349.1,154.3 				"/>
				<g>
					<g>
						<g>
							<polygon class="st6" points="244.1,152.4 209.6,101 262.2,70.6 296.8,122 							"/>
							<polygon class="st7" points="242.9,153.8 208.3,102.3 209.6,101 244.1,152.4 							"/>
							<polygon class="st7" points="242.9,153.8 295.6,123.4 296.8,122 244.1,152.4 							"/>
							
								<linearGradient id="SVGID_1_" gradientUnits="userSpaceOnUse" x1="913.0243" y1="135.7683" x2="885.0148" y2="87.2546" gradientTransform="matrix(1 0 0 1 -645.8584 0)">
								<stop  offset="4.947920e-02" style="stop-color:#30313B"/>
								<stop  offset="0.638" style="stop-color:#373B4A"/>
							</linearGradient>
							<polygon class="st8" points="213.7,101.9 261.3,74.5 292.6,121.1 245,148.5 							"/>
						</g>
						<g>
							<g>
								<g>
									<polygon class="st9" points="293.4,120.6 293.9,121.3 244.7,149.7 244.2,149 									"/>
									<polygon class="st9" points="285.5,108.8 286,109.5 236.7,137.9 236.3,137.2 									"/>
									<polygon class="st9" points="277.5,97 278,97.6 228.8,126.1 228.3,125.4 									"/>
									<polygon class="st9" points="269.6,85.1 270.1,85.8 220.8,114.2 220.4,113.6 									"/>
									<polygon class="st9" points="261.6,73.3 262.1,74 212.9,102.4 212.4,101.7 									"/>
								</g>
								<g>
									<polygon class="st9" points="213.7,101.9 212.9,102.4 244.2,149 245,148.5 									"/>
									<polygon class="st9" points="225.8,95 225,95.4 256.3,142 257.1,141.6 									"/>
									<polygon class="st9" points="237.9,88 237.1,88.5 268.4,135 269.2,134.6 									"/>
									<polygon class="st9" points="250,81 249.2,81.5 280.5,128.1 281.3,127.6 									"/>
									<polygon class="st9" points="262.1,74 261.3,74.5 292.6,121.1 293.4,120.6 									"/>
								</g>
							</g>
						</g>
					</g>
					<g>
						<polygon class="st6" points="193.1,181.9 158.5,130.4 211.2,100.1 245.8,151.5 						"/>
						<polygon class="st7" points="191.9,183.2 157.3,131.8 158.5,130.4 193.1,181.9 						"/>
						<polygon class="st7" points="191.9,183.2 244.5,152.8 245.8,151.5 193.1,181.9 						"/>
						
							<linearGradient id="SVGID_00000030478387871417703820000013773478624570028178_" gradientUnits="userSpaceOnUse" x1="862.0178" y1="165.2169" x2="834.0084" y2="116.7031" gradientTransform="matrix(1 0 0 1 -645.8584 0)">
							<stop  offset="4.947920e-02" style="stop-color:#30313B"/>
							<stop  offset="0.638" style="stop-color:#373B4A"/>
						</linearGradient>
						<polygon style="fill:url(#SVGID_00000030478387871417703820000013773478624570028178_);" points="162.7,131.4 210.3,103.9 
							241.6,150.5 194,178 						"/>
						<g>
							<g>
								<polygon class="st9" points="242.4,150 242.9,150.7 193.7,179.2 193.2,178.5 								"/>
								<polygon class="st9" points="234.5,138.2 235,138.9 185.7,167.3 185.3,166.6 								"/>
								<polygon class="st9" points="226.5,126.4 227,127.1 177.8,155.5 177.3,154.8 								"/>
								<polygon class="st9" points="218.6,114.6 219.1,115.3 169.8,143.7 169.4,143 								"/>
								<polygon class="st9" points="210.6,102.8 211.1,103.5 161.9,131.9 161.4,131.2 								"/>
							</g>
							<g>
								<polygon class="st9" points="162.7,131.4 161.9,131.9 193.2,178.5 194,178 								"/>
								<polygon class="st9" points="174.8,124.4 174,124.9 205.3,171.5 206.1,171 								"/>
								<polygon class="st9" points="186.9,117.4 186.1,117.9 217.4,164.5 218.2,164 								"/>
								<polygon class="st9" points="199,110.4 198.2,110.9 229.5,157.5 230.3,157 								"/>
								<polygon class="st9" points="211.1,103.5 210.3,103.9 241.6,150.5 242.4,150 								"/>
							</g>
						</g>
					</g>
					<g>
						<g>
							<polygon class="st6" points="142.1,211.3 107.5,159.9 160.2,129.5 194.8,180.9 							"/>
							<polygon class="st7" points="140.9,212.7 106.3,161.2 107.5,159.9 142.1,211.3 							"/>
							<polygon class="st7" points="140.9,212.7 193.5,182.3 194.8,180.9 142.1,211.3 							"/>
							
								<linearGradient id="SVGID_00000137092301205876322720000004139433251519720072_" gradientUnits="userSpaceOnUse" x1="811.0118" y1="194.6654" x2="783.0024" y2="146.1517" gradientTransform="matrix(1 0 0 1 -645.8584 0)">
								<stop  offset="4.947920e-02" style="stop-color:#30313B"/>
								<stop  offset="0.638" style="stop-color:#373B4A"/>
							</linearGradient>
							<polygon style="fill:url(#SVGID_00000137092301205876322720000004139433251519720072_);" points="111.7,160.8 159.3,133.4 
								190.6,180 143,207.4 							"/>
						</g>
						<g>
							<g>
								<g>
									<polygon class="st9" points="191.4,179.5 191.9,180.2 142.7,208.6 142.2,207.9 									"/>
									<polygon class="st9" points="183.5,167.7 183.9,168.4 134.7,196.8 134.2,196.1 									"/>
									<polygon class="st9" points="175.5,155.8 176,156.5 126.8,185 126.3,184.3 									"/>
									<polygon class="st9" points="167.6,144 168,144.7 118.8,173.1 118.3,172.5 									"/>
									<polygon class="st9" points="159.6,132.2 160.1,132.9 110.9,161.3 110.4,160.6 									"/>
								</g>
								<g>
									<polygon class="st9" points="111.7,160.8 110.9,161.3 142.2,207.9 143,207.4 									"/>
									<polygon class="st9" points="123.8,153.9 123,154.3 154.3,200.9 155.1,200.5 									"/>
									<polygon class="st9" points="135.9,146.9 135.1,147.4 166.4,193.9 167.2,193.5 									"/>
									<polygon class="st9" points="148,139.9 147.2,140.4 178.5,187 179.3,186.5 									"/>
									<polygon class="st9" points="160.1,132.9 159.3,133.4 190.6,180 191.4,179.5 									"/>
								</g>
							</g>
						</g>
					</g>
					<g>
						<polygon class="st6" points="91.1,240.8 56.5,189.3 109.2,158.9 143.7,210.4 						"/>
						<polygon class="st7" points="89.9,242.1 55.3,190.7 56.5,189.3 91.1,240.8 						"/>
						<polygon class="st7" points="89.9,242.1 142.5,211.7 143.7,210.4 91.1,240.8 						"/>
						
							<linearGradient id="SVGID_00000010990674278543889640000001481899488892004259_" gradientUnits="userSpaceOnUse" x1="760.0055" y1="224.114" x2="731.996" y2="175.6001" gradientTransform="matrix(1 0 0 1 -645.8584 0)">
							<stop  offset="4.947920e-02" style="stop-color:#30313B"/>
							<stop  offset="0.638" style="stop-color:#373B4A"/>
						</linearGradient>
						<polygon style="fill:url(#SVGID_00000010990674278543889640000001481899488892004259_);" points="60.7,190.3 108.3,162.8 
							139.6,209.4 92,236.9 						"/>
						<g>
							<g>
								<polygon class="st9" points="140.4,208.9 140.9,209.6 91.7,238.1 91.2,237.4 								"/>
								<polygon class="st9" points="132.5,197.1 132.9,197.8 83.7,226.2 83.2,225.5 								"/>
								<polygon class="st9" points="124.5,185.3 125,186 75.8,214.4 75.3,213.7 								"/>
								<polygon class="st9" points="116.6,173.5 117,174.2 67.8,202.6 67.3,201.9 								"/>
								<polygon class="st9" points="108.6,161.7 109.1,162.3 59.9,190.8 59.4,190.1 								"/>
							</g>
							<g>
								<polygon class="st9" points="60.7,190.3 59.9,190.8 91.2,237.4 92,236.9 								"/>
								<polygon class="st9" points="72.8,183.3 72,183.8 103.3,230.4 104.1,229.9 								"/>
								<polygon class="st9" points="84.9,176.3 84.1,176.8 115.4,223.4 116.2,222.9 								"/>
								<polygon class="st9" points="97,169.3 96.2,169.8 127.5,216.4 128.3,215.9 								"/>
								<polygon class="st9" points="109.1,162.3 108.3,162.8 139.6,209.4 140.4,208.9 								"/>
							</g>
						</g>
					</g>
				</g>
				<g>
					<g>
						<g>
							<polygon class="st6" points="297.7,183.4 263.1,131.9 315.8,101.5 350.3,153 							"/>
							<polygon class="st7" points="296.5,184.7 261.9,133.3 263.1,131.9 297.7,183.4 							"/>
							<polygon class="st7" points="296.5,184.7 349.1,154.3 350.3,153 297.7,183.4 							"/>
							
								<linearGradient id="SVGID_00000110458497907947298750000003741551363977424573_" gradientUnits="userSpaceOnUse" x1="966.5992" y1="166.7" x2="938.5898" y2="118.1863" gradientTransform="matrix(1 0 0 1 -645.8584 0)">
								<stop  offset="4.947920e-02" style="stop-color:#30313B"/>
								<stop  offset="0.638" style="stop-color:#373B4A"/>
							</linearGradient>
							<polygon style="fill:url(#SVGID_00000110458497907947298750000003741551363977424573_);" points="267.3,132.9 314.9,105.4 
								346.2,152 298.6,179.5 							"/>
						</g>
						<g>
							<g>
								<g>
									<polygon class="st9" points="347,151.5 347.5,152.2 298.3,180.6 297.8,180 									"/>
									<polygon class="st9" points="339.1,139.7 339.5,140.4 290.3,168.8 289.8,168.1 									"/>
									<polygon class="st9" points="331.1,127.9 331.6,128.6 282.4,157 281.9,156.3 									"/>
									<polygon class="st9" points="323.2,116.1 323.6,116.8 274.4,145.2 273.9,144.5 									"/>
									<polygon class="st9" points="315.2,104.2 315.7,104.9 266.5,133.4 266,132.7 									"/>
								</g>
								<g>
									<polygon class="st9" points="267.3,132.9 266.5,133.4 297.8,180 298.6,179.5 									"/>
									<polygon class="st9" points="279.4,125.9 278.6,126.4 309.9,173 310.7,172.5 									"/>
									<polygon class="st9" points="291.5,118.9 290.7,119.4 322,166 322.8,165.5 									"/>
									<polygon class="st9" points="303.6,111.9 302.8,112.4 334.1,159 334.9,158.5 									"/>
									<polygon class="st9" points="315.7,104.9 314.9,105.4 346.2,152 347,151.5 									"/>
								</g>
							</g>
						</g>
					</g>
					<g>
						<polygon class="st6" points="246.7,212.8 212.1,161.4 264.7,131 299.3,182.4 						"/>
						<polygon class="st7" points="245.5,214.2 210.9,162.7 212.1,161.4 246.7,212.8 						"/>
						<polygon class="st7" points="245.5,214.2 298.1,183.8 299.3,182.4 246.7,212.8 						"/>
						
							<linearGradient id="SVGID_00000181089570324742101290000015593218663541000347_" gradientUnits="userSpaceOnUse" x1="915.5929" y1="196.1484" x2="887.5835" y2="147.6348" gradientTransform="matrix(1 0 0 1 -645.8584 0)">
							<stop  offset="4.947920e-02" style="stop-color:#30313B"/>
							<stop  offset="0.638" style="stop-color:#373B4A"/>
						</linearGradient>
						<polygon style="fill:url(#SVGID_00000181089570324742101290000015593218663541000347_);" points="216.3,162.3 263.8,134.9 
							295.2,181.5 247.6,208.9 						"/>
						<g>
							<g>
								<polygon class="st9" points="296,181 296.5,181.7 247.2,210.1 246.8,209.4 								"/>
								<polygon class="st9" points="288.1,169.2 288.5,169.8 239.3,198.3 238.8,197.6 								"/>
								<polygon class="st9" points="280.1,157.3 280.6,158 231.3,186.5 230.9,185.8 								"/>
								<polygon class="st9" points="272.2,145.5 272.6,146.2 223.4,174.6 222.9,173.9 								"/>
								<polygon class="st9" points="264.2,133.7 264.7,134.4 215.4,162.8 215,162.1 								"/>
							</g>
							<g>
								<polygon class="st9" points="216.3,162.3 215.4,162.8 246.8,209.4 247.6,208.9 								"/>
								<polygon class="st9" points="228.4,155.3 227.5,155.8 258.9,202.4 259.7,201.9 								"/>
								<polygon class="st9" points="240.5,148.4 239.6,148.8 271,195.4 271.8,194.9 								"/>
								<polygon class="st9" points="252.6,141.4 251.7,141.8 283.1,188.4 283.9,188 								"/>
								<polygon class="st9" points="264.7,134.4 263.8,134.9 295.2,181.5 296,181 								"/>
							</g>
						</g>
					</g>
					<g>
						<g>
							<polygon class="st6" points="195.7,242.2 161.1,190.8 213.7,160.4 248.3,211.9 							"/>
							<polygon class="st7" points="194.5,243.6 159.9,192.2 161.1,190.8 195.7,242.2 							"/>
							<polygon class="st7" points="194.5,243.6 247.1,213.2 248.3,211.9 195.7,242.2 							"/>
							
								<linearGradient id="SVGID_00000077308237905227190350000005378945850440737671_" gradientUnits="userSpaceOnUse" x1="864.5869" y1="225.597" x2="836.5775" y2="177.0832" gradientTransform="matrix(1 0 0 1 -645.8584 0)">
								<stop  offset="4.947920e-02" style="stop-color:#30313B"/>
								<stop  offset="0.638" style="stop-color:#373B4A"/>
							</linearGradient>
							<polygon style="fill:url(#SVGID_00000077308237905227190350000005378945850440737671_);" points="165.3,191.8 212.8,164.3 
								244.2,210.9 196.6,238.4 							"/>
						</g>
						<g>
							<g>
								<g>
									<polygon class="st9" points="245,210.4 245.5,211.1 196.2,239.5 195.8,238.8 									"/>
									<polygon class="st9" points="237.1,198.6 237.5,199.3 188.3,227.7 187.8,227 									"/>
									<polygon class="st9" points="229.1,186.8 229.6,187.5 180.3,215.9 179.9,215.2 									"/>
									<polygon class="st9" points="221.2,175 221.6,175.7 172.4,204.1 171.9,203.4 									"/>
									<polygon class="st9" points="213.2,163.1 213.7,163.8 164.4,192.3 164,191.6 									"/>
								</g>
								<g>
									<polygon class="st9" points="165.3,191.8 164.4,192.3 195.8,238.8 196.6,238.4 									"/>
									<polygon class="st9" points="177.4,184.8 176.5,185.3 207.9,231.9 208.7,231.4 									"/>
									<polygon class="st9" points="189.5,177.8 188.6,178.3 220,224.9 220.8,224.4 									"/>
									<polygon class="st9" points="201.6,170.8 200.7,171.3 232.1,217.9 232.9,217.4 									"/>
									<polygon class="st9" points="213.7,163.8 212.8,164.3 244.2,210.9 245,210.4 									"/>
								</g>
							</g>
						</g>
					</g>
				</g>
			</g>
			<g>
				<g>
					<polygon class="st6" points="351.3,214.3 316.7,162.8 369.3,132.5 403.9,183.9 					"/>
					<polygon class="st7" points="350.1,215.6 315.5,164.2 316.7,162.8 351.3,214.3 					"/>
					<polygon class="st7" points="350.1,215.6 402.7,185.3 403.9,183.9 351.3,214.3 					"/>
					
						<linearGradient id="SVGID_00000153673705702161492900000000480233055483353220_" gradientUnits="userSpaceOnUse" x1="1020.1745" y1="197.6316" x2="992.165" y2="149.1178" gradientTransform="matrix(1 0 0 1 -645.8584 0)">
						<stop  offset="4.947920e-02" style="stop-color:#30313B"/>
						<stop  offset="0.638" style="stop-color:#373B4A"/>
					</linearGradient>
					<polygon style="fill:url(#SVGID_00000153673705702161492900000000480233055483353220_);" points="320.9,163.8 368.4,136.3 
						399.8,182.9 352.2,210.4 					"/>
				</g>
				<g>
					<g>
						<g>
							<polygon class="st9" points="400.6,182.5 401.1,183.2 351.8,211.6 351.4,210.9 							"/>
							<polygon class="st9" points="392.6,170.6 393.1,171.3 343.9,199.8 343.4,199.1 							"/>
							<polygon class="st9" points="384.7,158.8 385.2,159.5 335.9,187.9 335.5,187.2 							"/>
							<polygon class="st9" points="376.7,147 377.2,147.7 328,176.1 327.5,175.4 							"/>
							<polygon class="st9" points="368.8,135.2 369.3,135.9 320,164.3 319.6,163.6 							"/>
						</g>
						<g>
							<polygon class="st9" points="320.9,163.8 320,164.3 351.4,210.9 352.2,210.4 							"/>
							<polygon class="st9" points="333,156.8 332.1,157.3 363.5,203.9 364.3,203.4 							"/>
							<polygon class="st9" points="345.1,149.8 344.2,150.3 375.6,196.9 376.4,196.4 							"/>
							<polygon class="st9" points="357.2,142.9 356.3,143.3 387.7,189.9 388.5,189.4 							"/>
							<polygon class="st9" points="369.3,135.9 368.4,136.3 399.8,182.9 400.6,182.5 							"/>
						</g>
					</g>
				</g>
			</g>
			<g>
				<polygon class="st6" points="300.3,243.7 265.7,192.3 318.3,161.9 352.9,213.4 				"/>
				<polygon class="st7" points="299.1,245.1 264.5,193.6 265.7,192.3 300.3,243.7 				"/>
				<polygon class="st7" points="299.1,245.1 351.7,214.7 352.9,213.4 300.3,243.7 				"/>
				
					<linearGradient id="SVGID_00000056395637913125282890000005113350946150832046_" gradientUnits="userSpaceOnUse" x1="969.1681" y1="227.08" x2="941.1587" y2="178.5663" gradientTransform="matrix(1 0 0 1 -645.8584 0)">
					<stop  offset="4.947920e-02" style="stop-color:#30313B"/>
					<stop  offset="0.638" style="stop-color:#373B4A"/>
				</linearGradient>
				<polygon style="fill:url(#SVGID_00000056395637913125282890000005113350946150832046_);" points="269.9,193.3 317.4,165.8 
					348.8,212.4 301.2,239.9 				"/>
				<g>
					<g>
						<polygon class="st9" points="349.6,211.9 350.1,212.6 300.8,241 300.4,240.3 						"/>
						<polygon class="st9" points="341.6,200.1 342.1,200.8 292.9,229.2 292.4,228.5 						"/>
						<polygon class="st9" points="333.7,188.3 334.2,189 284.9,217.4 284.5,216.7 						"/>
						<polygon class="st9" points="325.7,176.4 326.2,177.1 277,205.6 276.5,204.9 						"/>
						<polygon class="st9" points="317.8,164.6 318.3,165.3 269,193.7 268.6,193 						"/>
					</g>
					<g>
						<polygon class="st9" points="269.9,193.3 269,193.7 300.4,240.3 301.2,239.9 						"/>
						<polygon class="st9" points="282,186.3 281.1,186.8 312.5,233.3 313.3,232.9 						"/>
						<polygon class="st9" points="294.1,179.3 293.2,179.8 324.6,226.4 325.4,225.9 						"/>
						<polygon class="st9" points="306.2,172.3 305.3,172.8 336.7,219.4 337.5,218.9 						"/>
						<polygon class="st9" points="318.3,165.3 317.4,165.8 348.8,212.4 349.6,211.9 						"/>
					</g>
				</g>
			</g>
		</g>
	</g>
</g>
</svg>
